<mxfile host="www.draw.io" modified="2019-12-03T20:14:01.847Z" agent="Mozilla/5.0 (Windows NT 10.0; Win64; x64) AppleWebKit/537.36 (KHTML, like Gecko) Chrome/78.0.3904.108 Safari/537.36" etag="BdzUJcw6Xz9ywSKkiheJ" version="12.3.6" type="github" pages="1">
  <diagram id="XfruFh541fbzmiItRD5A" name="Page-1">
    <mxGraphModel dx="942" dy="614" grid="1" gridSize="10" guides="1" tooltips="1" connect="1" arrows="1" fold="1" page="1" pageScale="1" pageWidth="827" pageHeight="1169" math="0" shadow="0">
      <root>
        <mxCell id="0"/>
        <mxCell id="1" parent="0"/>
        <mxCell id="tzgv2kEMkNuGCaS-j2l6-1" value="" style="fillColor=#dddddd;rounded=0;strokeColor=none;" parent="1" vertex="1">
          <mxGeometry y="140" width="580" height="30" as="geometry"/>
        </mxCell>
        <mxCell id="tzgv2kEMkNuGCaS-j2l6-2" value="&amp;nbsp; &amp;nbsp; &amp;nbsp;2014" style="shape=mxgraph.infographic.ribbonSimple;notch1=14.33;notch2=12.2;notch=0;html=1;fillColor=#10739E;strokeColor=none;shadow=0;fontSize=17;fontColor=#FFFFFF;align=left;spacingLeft=10;fontStyle=1;" parent="1" vertex="1">
          <mxGeometry x="40" y="130" width="180" height="50" as="geometry"/>
        </mxCell>
        <mxCell id="tzgv2kEMkNuGCaS-j2l6-3" value="&amp;nbsp; &amp;nbsp; 2015" style="shape=mxgraph.infographic.ribbonSimple;notch1=13.33;notch2=11.79;notch=0;html=1;fillColor=#F2931E;strokeColor=none;shadow=0;fontSize=17;fontColor=#FFFFFF;align=left;spacingLeft=10;fontStyle=1;" parent="1" vertex="1">
          <mxGeometry x="220" y="130" width="180" height="50" as="geometry"/>
        </mxCell>
        <mxCell id="tzgv2kEMkNuGCaS-j2l6-4" value="&amp;nbsp; &amp;nbsp; &amp;nbsp;2016" style="shape=mxgraph.infographic.ribbonSimple;notch1=12.43;notch2=10;notch=0;html=1;fillColor=#AE4132;strokeColor=none;shadow=0;fontSize=17;fontColor=#FFFFFF;align=left;spacingLeft=10;fontStyle=1;" parent="1" vertex="1">
          <mxGeometry x="400" y="130" width="170" height="50" as="geometry"/>
        </mxCell>
        <mxCell id="tzgv2kEMkNuGCaS-j2l6-7" value="&lt;font style=&quot;font-size: 10px&quot;&gt;&lt;font style=&quot;font-size: 12px&quot; color=&quot;#10739E&quot;&gt;&lt;b&gt;Agosto&lt;/b&gt;&lt;/font&gt;&lt;br&gt;&lt;font size=&quot;1&quot;&gt;Lorem ipsum dolor sit amet, consectetur adipisicing elit&lt;/font&gt;&lt;/font&gt;" style="rounded=1;strokeColor=none;fillColor=#DDDDDD;align=center;arcSize=4;verticalAlign=top;whiteSpace=wrap;html=1;fontSize=12;" parent="1" vertex="1">
          <mxGeometry x="40" y="190" width="170" height="160" as="geometry"/>
        </mxCell>
        <mxCell id="tzgv2kEMkNuGCaS-j2l6-8" value="&lt;font style=&quot;font-size: 10px&quot;&gt;&lt;font style=&quot;font-size: 12px&quot; color=&quot;#F2931E&quot;&gt;&lt;b&gt;Label&lt;/b&gt;&lt;/font&gt;&lt;br&gt;&lt;font size=&quot;1&quot;&gt;Lorem ipsum dolor sit amet, consectetur adipisicing elit&lt;/font&gt;&lt;/font&gt;" style="rounded=1;strokeColor=none;fillColor=#DDDDDD;align=center;arcSize=3;verticalAlign=top;whiteSpace=wrap;html=1;fontSize=12;" parent="1" vertex="1">
          <mxGeometry x="220" y="190" width="170" height="160" as="geometry"/>
        </mxCell>
        <mxCell id="tzgv2kEMkNuGCaS-j2l6-9" value="&lt;font style=&quot;font-size: 10px&quot;&gt;&lt;font style=&quot;font-size: 12px&quot; color=&quot;#AE4132&quot;&gt;&lt;b&gt;Label&lt;/b&gt;&lt;/font&gt;&lt;br&gt;&lt;font size=&quot;1&quot;&gt;Lorem ipsum dolor sit amet, consectetur adipisicing elit&lt;/font&gt;&lt;/font&gt;" style="rounded=1;strokeColor=none;fillColor=#DDDDDD;align=center;arcSize=4;verticalAlign=top;whiteSpace=wrap;html=1;fontSize=12;" parent="1" vertex="1">
          <mxGeometry x="400" y="190" width="180" height="160" as="geometry"/>
        </mxCell>
        <mxCell id="tzgv2kEMkNuGCaS-j2l6-23" value="" style="fillColor=#dddddd;rounded=0;strokeColor=none;" parent="1" vertex="1">
          <mxGeometry y="470" width="580" height="30" as="geometry"/>
        </mxCell>
        <mxCell id="tzgv2kEMkNuGCaS-j2l6-27" value="&lt;font style=&quot;font-size: 10px&quot;&gt;&lt;font style=&quot;font-size: 12px&quot; color=&quot;#10739E&quot;&gt;&lt;b&gt;Agosto&lt;/b&gt;&lt;/font&gt;&lt;br&gt;&lt;font size=&quot;1&quot;&gt;Lorem ipsum dolor sit amet, consectetur adipisicing elit&lt;/font&gt;&lt;/font&gt;" style="rounded=1;strokeColor=none;fillColor=#DDDDDD;align=center;arcSize=4;verticalAlign=top;whiteSpace=wrap;html=1;fontSize=12;" parent="1" vertex="1">
          <mxGeometry x="40" y="520" width="170" height="160" as="geometry"/>
        </mxCell>
        <mxCell id="tzgv2kEMkNuGCaS-j2l6-28" value="&lt;font style=&quot;font-size: 10px&quot;&gt;&lt;font style=&quot;font-size: 12px&quot; color=&quot;#F2931E&quot;&gt;&lt;b&gt;Label&lt;/b&gt;&lt;/font&gt;&lt;br&gt;&lt;font size=&quot;1&quot;&gt;Lorem ipsum dolor sit amet, consectetur adipisicing elit&lt;/font&gt;&lt;/font&gt;" style="rounded=1;strokeColor=none;fillColor=#DDDDDD;align=center;arcSize=3;verticalAlign=top;whiteSpace=wrap;html=1;fontSize=12;" parent="1" vertex="1">
          <mxGeometry x="220" y="520" width="170" height="160" as="geometry"/>
        </mxCell>
        <mxCell id="tzgv2kEMkNuGCaS-j2l6-29" value="&lt;font style=&quot;font-size: 10px&quot;&gt;&lt;font style=&quot;font-size: 12px&quot; color=&quot;#AE4132&quot;&gt;&lt;b&gt;Label&lt;/b&gt;&lt;/font&gt;&lt;br&gt;&lt;font size=&quot;1&quot;&gt;Lorem ipsum dolor sit amet, consectetur adipisicing elit&lt;/font&gt;&lt;/font&gt;" style="rounded=1;strokeColor=none;fillColor=#DDDDDD;align=center;arcSize=4;verticalAlign=top;whiteSpace=wrap;html=1;fontSize=12;" parent="1" vertex="1">
          <mxGeometry x="400" y="520" width="180" height="160" as="geometry"/>
        </mxCell>
        <mxCell id="tzgv2kEMkNuGCaS-j2l6-30" value="&amp;nbsp; &amp;nbsp; &amp;nbsp;2014" style="shape=mxgraph.infographic.ribbonSimple;notch1=14.33;notch2=13.33;notch=0;html=1;fillColor=#330066;strokeColor=none;shadow=0;fontSize=17;fontColor=#FFFFFF;align=left;spacingLeft=10;fontStyle=1;" parent="1" vertex="1">
          <mxGeometry x="40" y="460" width="180" height="50" as="geometry"/>
        </mxCell>
        <mxCell id="tzgv2kEMkNuGCaS-j2l6-31" value="&amp;nbsp; &amp;nbsp; 2015" style="shape=mxgraph.infographic.ribbonSimple;notch1=13.33;notch2=12.28;notch=0;html=1;fillColor=#666600;strokeColor=none;shadow=0;fontSize=17;fontColor=#FFFFFF;align=left;spacingLeft=10;fontStyle=1;" parent="1" vertex="1">
          <mxGeometry x="220" y="460" width="180" height="50" as="geometry"/>
        </mxCell>
        <mxCell id="tzgv2kEMkNuGCaS-j2l6-32" value="&amp;nbsp; &amp;nbsp; &amp;nbsp;2016" style="shape=mxgraph.infographic.ribbonSimple;notch1=12.43;notch2=10;notch=0;html=1;fillColor=#006666;strokeColor=none;shadow=0;fontSize=17;fontColor=#FFFFFF;align=left;spacingLeft=10;fontStyle=1;" parent="1" vertex="1">
          <mxGeometry x="400" y="460" width="170" height="50" as="geometry"/>
        </mxCell>
      </root>
    </mxGraphModel>
  </diagram>
</mxfile>
